<?xml version="1.0" encoding="UTF-8"?>
<svg id="Layer_2" data-name="Layer 2" xmlns="http://www.w3.org/2000/svg" viewBox="0 0 396.81 42.67">
  <g id="Layer_1-2" data-name="Layer 1">
    <g>
      <g>
        <path d="M1.02,1.51h4.21c4.47,10.97,9.14,22.64,13.66,34.78h.1c4.42-11.58,8.88-23.15,13.2-34.78h4.42c4.47,11.63,8.93,23.2,13.35,34.78h.15c4.98-13.1,8.94-23.46,13.5-34.78h4.21l-15.43,39.6h-4.77c-5.13-12.74-9.04-23.2-13.15-34.37h-.1c-4.57,12.49-8.43,22.9-13.15,34.37h-4.72L1.02,1.51Z"/>
        <path d="M52.87,41.8h-5.72l-.18-.44c-5.09-12.64-9.01-23.13-12.55-32.75-4.13,11.28-7.98,21.63-12.56,32.75l-.18.43h-5.66L0,.81h5.7l.18.43c3.67,9.01,8.43,20.83,13.07,33.2.81-2.13,1.63-4.27,2.45-6.4,3.35-8.77,6.82-17.83,10.14-26.78l.17-.45h5.38l4.01,10.44c2.99,7.77,5.97,15.52,8.93,23.28,4.56-12.01,8.48-22.23,12.94-33.28l.18-.44h5.7l-15.98,40.99ZM48.1,40.41h3.83L66.81,2.21h-2.72c-4.57,11.33-8.57,21.82-13.32,34.33l-.17.45h-1.11l-.17-.45c-3.15-8.25-6.33-16.51-9.51-24.78l-3.67-9.55h-3.45c-3.27,8.81-6.68,17.72-9.98,26.34-1.02,2.66-2.04,5.32-3.05,7.99l-.17.45h-1.07l-.17-.45C13.49,23.79,8.57,11.54,4.77,2.21h-2.73l14.94,38.21h3.78c4.71-11.47,8.66-22.15,12.96-33.91l.17-.46h1.07l.17.46c3.66,9.95,7.68,20.76,12.97,33.91Z"/>
      </g>
      <g>
        <path d="M83.33,1.51h4.32l19.34,39.6h-4.16l-6.96-13.86h-20.87c-2.28,4.62-4.57,9.24-6.8,13.86h-4.21L83.33,1.51ZM94.24,23.9c-3-6.14-6.14-12.64-8.68-18.23h-.15c-1.62,3.5-5.33,11.02-8.83,18.23h17.67Z"/>
        <path d="M108.1,41.8h-5.71l-6.96-13.86h-20c-2.18,4.41-4.42,8.95-6.61,13.47l-.19.39h-5.77L82.89.81h5.19l20.02,40.99ZM103.25,40.41h2.62L87.21,2.21h-3.45l-18.66,38.21h2.66c2.19-4.53,4.44-9.07,6.62-13.47l.19-.39h21.73l6.96,13.86ZM95.35,24.59h-19.89l.49-1c1.07-2.21,2.17-4.45,3.21-6.59,2.41-4.94,4.49-9.2,5.61-11.62l.19-.4h1.05l.19.41c2.6,5.73,5.84,12.4,8.67,18.21l.49,1ZM77.69,23.2h15.44c-2.52-5.16-5.3-10.91-7.65-16.04-1.19,2.52-3.01,6.24-5.06,10.44-.89,1.82-1.81,3.71-2.73,5.59Z"/>
      </g>
      <g>
        <path d="M109.35,21.46c0-12.54,10.56-20.76,23.66-20.76,8.73,0,17.77,3.76,20.87,11.57l-3.55,1.32c-2.94-6.04-9.75-9.49-17.26-9.49-10.41,0-19.49,6.5-19.49,17.41,0,11.57,10.1,17.06,20.21,17.06s16.25-5.48,18.43-11.98l3.55,1.17c-2.94,8.12-10.31,14.22-22.44,14.22-14.06,0-23.96-8.43-23.96-20.51Z"/>
        <path d="M133.31,42.67c-14.52,0-24.66-8.72-24.66-21.21S118.9,0,133.01,0c7.73,0,18,3.15,21.51,12.01l.26.66-4.81,1.79-.28-.57c-2.74-5.61-9.11-9.1-16.63-9.1-9.34,0-18.8,5.74-18.8,16.72,0,8.14,6.03,16.36,19.51,16.36,8.71,0,15.35-4.3,17.77-11.51l.22-.66,4.89,1.61-.24.67c-3.38,9.33-11.8,14.67-23.09,14.67ZM133.01,1.39c-13.31,0-22.96,8.44-22.96,20.07s9.57,19.81,23.27,19.81c10.4,0,18.2-4.76,21.53-13.09l-2.22-.73c-2.79,7.41-9.79,11.8-18.86,11.8-10.07,0-20.9-5.56-20.9-17.75s10.16-18.11,20.19-18.11c7.81,0,14.49,3.56,17.6,9.32l2.29-.85c-3.5-7.72-12.85-10.48-19.94-10.48Z"/>
      </g>
      <g>
        <path d="M172.96,21.46c0-12.44,10.46-20.76,23.66-20.76,8.78,0,17.77,3.81,20.87,11.57l-3.55,1.32c-2.94-6.04-9.75-9.49-17.26-9.49-10.36,0-19.49,6.45-19.49,17.41,0,11.63,10.1,17.06,19.95,17.06s17.26-5.84,17.92-13.66h-16.8v-3.15h20.76v19.34h-3.3c0-2.94-.05-5.99-.1-8.94h-.3c-3.2,6.09-9.6,9.8-18.78,9.8-13.71,0-23.56-8.48-23.56-20.51Z"/>
        <path d="M196.51,42.67c-14.05,0-24.25-8.92-24.25-21.21S182.5,0,196.62,0c10.16,0,18.6,4.72,21.51,12.01l.26.66-4.81,1.79-.28-.57c-2.74-5.61-9.11-9.1-16.63-9.1-9.34,0-18.8,5.74-18.8,16.72s9.98,16.36,19.26,16.36,16.11-5,17.14-12.26h-16.72v-4.54h22.16v20.74h-4.69v-.7c0-2.31-.03-4.72-.07-6.97-3.68,5.52-10.15,8.53-18.42,8.53ZM196.62,1.39c-13.3,0-22.96,8.44-22.96,20.07s9.4,19.81,22.86,19.81c8.52,0,14.98-3.35,18.17-9.43l.2-.37h1.41v.68c.06,2.57.11,5.45.11,8.25h1.91v-17.95h-19.37v1.75h16.87l-.06.75c-.71,8.42-8.37,14.29-18.61,14.29s-20.65-5.56-20.65-17.75,10.16-18.11,20.19-18.11c7.81,0,14.49,3.56,17.6,9.32l2.29-.85c-3.52-7.72-12.86-10.48-19.94-10.48Z"/>
      </g>
      <g>
        <path d="M227.83,1.51h16.55c8.88,0,15.53,4.16,15.53,11.78,0,6.85-5.13,11.27-12.44,11.88v.05c4.26,5.28,8.58,10.56,12.84,15.89h-4.42l-12.79-15.79h-11.27v15.79h-4.01V1.51ZM244.13,22.07c7.16,0,11.63-3,11.63-8.58s-4.98-8.68-12.08-8.68h-11.83v17.26h12.29Z"/>
        <path d="M261.77,41.8h-6.2l-12.79-15.79h-10.24v15.79h-5.4V.81h17.25c9.86,0,16.23,4.9,16.23,12.47,0,6.61-4.6,11.38-11.83,12.43,1.24,1.54,2.49,3.07,3.74,4.61,2.79,3.43,5.58,6.88,8.35,10.34l.91,1.13ZM256.24,40.41h2.63c-2.47-3.08-4.96-6.14-7.44-9.2-1.5-1.85-3-3.7-4.5-5.55l-.15-.19v-.89l.64-.1c7.28-.61,11.8-4.89,11.8-11.19,0-6.73-5.82-11.08-14.84-11.08h-15.85v38.21h2.62v-15.79h12.3l12.79,15.79ZM244.13,22.77h-12.98V4.11h12.53c7.76,0,12.78,3.68,12.78,9.38s-4.61,9.28-12.32,9.28ZM232.54,21.37h11.59c6.95,0,10.93-2.87,10.93-7.88s-4.36-7.98-11.39-7.98h-11.13v15.87Z"/>
      </g>
      <g>
        <path d="M264.53,21.36c0-11.93,10.71-20.66,23.86-20.66s23.81,9.09,23.81,20.66-10.61,20.61-23.86,20.61-23.81-8.68-23.81-20.61ZM288.45,38.57c10.41,0,19.44-7.26,19.44-17.21s-8.99-17.26-19.44-17.26-19.65,7.26-19.65,17.26,9.14,17.21,19.65,17.21Z"/>
        <path d="M288.35,42.67c-13.74,0-24.51-9.36-24.51-21.31S274.63,0,288.4,0s24.51,9.38,24.51,21.36-10.79,21.31-24.56,21.31ZM288.4,1.39c-12.99,0-23.16,8.77-23.16,19.97s10.15,19.92,23.11,19.92,23.16-8.75,23.16-19.92-10.15-19.97-23.11-19.97ZM288.45,39.27c-11.41,0-20.34-7.87-20.34-17.91s8.94-17.96,20.34-17.96,20.14,7.89,20.14,17.96-8.85,17.91-20.14,17.91ZM288.45,4.79c-10.63,0-18.95,7.28-18.95,16.56s8.32,16.51,18.95,16.51,18.75-7.25,18.75-16.51-8.23-16.56-18.75-16.56Z"/>
      </g>
      <g>
        <path d="M319.51,26.74V1.51h3.96v25.03c0,8.48,5.13,12.08,13,12.08s13.05-3.6,13.05-12.08V1.51h3.96v25.23c0,8.58-5.28,15.23-17.16,15.23-10.56,0-16.8-5.48-16.8-15.23Z"/>
        <path d="M336.32,42.67c-11.12,0-17.5-5.81-17.5-15.93V.81h5.35v25.73c0,7.56,4.14,11.39,12.3,11.39s12.35-3.83,12.35-11.39V.81h5.35v25.93c0,9.97-6.68,15.93-17.86,15.93ZM320.21,2.21v24.54c0,9.24,5.87,14.53,16.11,14.53s16.46-5.3,16.46-14.53V2.21h-2.57v24.33c0,8.36-4.75,12.78-13.74,12.78s-13.69-4.54-13.69-12.78V2.21h-2.57Z"/>
      </g>
      <g>
        <path d="M364.03,1.51h16.55c8.99,0,15.53,4.16,15.53,11.73,0,8.07-6.9,12.13-14.52,12.13h-13.56v15.74h-4.01V1.51ZM380.33,21.97c7.16,0,11.63-2.94,11.63-8.53s-4.98-8.63-12.08-8.63h-11.83v17.16h12.29Z"/>
        <path d="M368.74,41.8h-5.4V.81h17.25c9.86,0,16.23,4.88,16.23,12.42,0,6.39-4.7,12.83-15.22,12.83h-12.86v15.74ZM364.73,40.41h2.62v-15.74h14.25c6.88,0,13.82-3.54,13.82-11.44,0-6.8-5.69-11.03-14.84-11.03h-15.85v38.21ZM380.33,22.66h-12.98V4.11h12.52c7.88,0,12.78,3.57,12.78,9.33s-4.49,9.23-12.32,9.23ZM368.74,21.27h11.59c6.95,0,10.93-2.85,10.93-7.83s-4.36-7.93-11.39-7.93h-11.13v15.77Z"/>
      </g>
    </g>
  </g>
</svg>